<?xml version="1.0" encoding="UTF-8"?>
<svg xmlns="http://www.w3.org/2000/svg" width="47" height="38" viewBox="0 0 47 38" fill="none">
  <g clip-path="url(#clip0_21_11)">
    <path d="M0.141948 11.401C0.428948 12.428 0.76795 13.453 1.15295 14.45C4.66995 23.56 11.495 29.921 17.753 29.921C18.6254 29.9107 19.4914 29.7695 20.322 29.502L20.79 29.358L20.953 29.822C22.44 34.095 25.106 36.883 28.46 37.677C29.1091 37.8306 29.7739 37.9085 30.441 37.909C37.035 37.909 43.5799 30.479 46.0039 20.247C46.2499 19.208 46.445 18.147 46.592 17.09C46.678 16.4688 46.609 15.836 46.391 15.248C46.1731 14.66 45.813 14.1351 45.343 13.72C44.8884 13.3144 44.3402 13.0281 43.7476 12.8869C43.155 12.7457 42.5366 12.754 41.9479 12.911C39.4445 13.5684 36.8178 13.6007 34.2989 13.005C31.8427 12.4228 29.5614 11.2611 27.6459 9.61701L27.5319 9.51701L27.5039 9.49301L27.467 9.46001C27.3071 9.32375 27.1354 9.20194 26.954 9.09601L26.775 8.98801L26.722 8.78801C26.3932 7.52091 25.9926 6.27355 25.522 5.05201C25.138 4.05201 24.7 3.06701 24.222 2.11501C23.942 1.5524 23.5269 1.068 23.0138 0.705174C22.5008 0.34235 21.9057 0.112434 21.2819 0.0360127C20.6779 -0.0432602 20.0635 0.0294448 19.4946 0.24754C18.9257 0.465636 18.4202 0.82223 18.024 1.28501C16.3309 3.24238 14.1825 4.75341 11.768 5.68501C9.35439 6.62304 6.74575 6.9474 4.17596 6.62901C3.57086 6.55263 2.95626 6.62829 2.38775 6.84917C1.81925 7.07004 1.31477 7.42915 0.919948 7.89401C0.511115 8.36927 0.226219 8.9383 0.090648 9.55038C-0.0449231 10.1625 -0.02695 10.7986 0.142955 11.402M27.4089 19.907C27.7014 18.0689 27.7779 16.2029 27.637 14.347L27.57 13.379L28.404 13.873C30.013 14.8429 31.7604 15.5622 33.5859 16.006C36.633 16.7074 39.8029 16.6769 42.8359 15.917L43.096 15.852L43.296 16.031C43.3847 16.1107 43.4524 16.2111 43.4929 16.3233C43.5334 16.4355 43.5454 16.556 43.528 16.674C43.396 17.628 43.217 18.592 42.995 19.538C40.933 28.247 35.386 34.818 30.412 34.818C29.9922 34.8197 29.5736 34.7721 29.165 34.676C26.724 34.1 24.7739 31.833 23.6719 28.298C23.6528 28.2322 23.6371 28.1654 23.625 28.098L23.542 27.803L23.747 27.503C25.7591 25.4361 27.0441 22.7706 27.408 19.909M3.25795 9.90901L3.41095 9.73001L3.71795 9.68901C6.81636 10.0707 9.96108 9.68572 12.876 8.56801C15.7876 7.42606 18.3867 5.60966 20.46 3.26801L20.635 3.06801L20.897 3.09901C21.0168 3.1124 21.1312 3.15616 21.2294 3.22617C21.3276 3.29617 21.4062 3.39008 21.458 3.49901C21.893 4.36301 22.288 5.26201 22.638 6.16301C24.3605 10.349 24.9553 14.9134 24.363 19.401C23.753 23.056 22.126 25.564 19.785 26.467C19.1412 26.7117 18.4577 26.8351 17.7689 26.831C12.9689 26.831 7.08295 21.248 4.02995 13.343C3.68195 12.438 3.37296 11.506 3.11496 10.577C3.08111 10.4628 3.07637 10.342 3.10118 10.2255C3.12598 10.109 3.17953 10.0005 3.25695 9.91001" fill="#FF0000"></path>
    <path d="M29.848 31.785C32.567 32.436 37.784 27.921 39.972 19.385C37.6038 19.6085 35.2151 19.4436 32.9 18.897C32.1185 18.706 31.348 18.4723 30.592 18.197C30.535 18.945 30.458 19.682 30.338 20.397C29.9036 23.3329 28.7137 26.1055 26.885 28.443C27.644 30.29 28.713 31.514 29.848 31.783" fill="#FF0000"></path>
  </g>
  <defs>
    <clipPath id="clip0_21_11">
      <rect width="46.622" height="37.908" fill="white"></rect>
    </clipPath>
  </defs>
</svg>
