<svg xmlns="http://www.w3.org/2000/svg" width="343.003" height="36.215" viewBox="0 0 343.003 36.215">
  <g id="Group_193" data-name="Group 193" transform="translate(-693 -84)">
    <path id="Path_375" data-name="Path 375" d="M51.058,27.752a2.58,2.58,0,0,0,.695-1.886,2.659,2.659,0,0,0-2.7-2.4H42.48l-2.553,5.082h9.288a2.517,2.517,0,0,0,1.844-.793" transform="translate(691.115 82.892)" fill="red"></path>
    <path id="Path_376" data-name="Path 376" d="M39.133,11.186H53.108a2.593,2.593,0,0,0,2.6-2.034A2.544,2.544,0,0,0,53.212,6.1H41.279Z" transform="translate(691.152 83.711)" fill="red"></path>
    <path id="Path_377" data-name="Path 377" d="M8.942,11.186h13.5L23.762,6.1H8.838A2.545,2.545,0,0,0,6.346,9.152a2.594,2.594,0,0,0,2.6,2.034" transform="translate(692.703 83.711)" fill="red"></path>
    <path id="Path_378" data-name="Path 378" d="M10.535,25.867a2.575,2.575,0,0,0,.694,1.887,2.52,2.52,0,0,0,1.844.792h5.271l1.321-5.082H13.231a2.658,2.658,0,0,0-2.7,2.4" transform="translate(692.503 82.892)" fill="red"></path>
    <path id="Path_379" data-name="Path 379" d="M24.773,37.261l.915-5.088H6.9a2.657,2.657,0,0,0-2.7,2.4v0h0c0,.04.006.077.006.117a2.827,2.827,0,0,0,.023.4,2.536,2.536,0,0,0,2.509,2.158H24.773Z" transform="translate(692.801 82.481)" fill="red"></path>
    <path id="Path_380" data-name="Path 380" d="M63.559,17.151a2.658,2.658,0,0,0-2.7-2.4H37.629l-2.147,5.082H61.021a2.519,2.519,0,0,0,1.843-.792,2.55,2.55,0,0,0,.695-1.887" transform="translate(691.325 83.303)" fill="red"></path>
    <path id="Path_381" data-name="Path 381" d="M20,19.829l1.321-5.082H2.7a2.657,2.657,0,0,0-2.7,2.4A2.544,2.544,0,0,0,.7,19.037a2.515,2.515,0,0,0,1.843.792Z" transform="translate(693 83.303)" fill="red"></path>
    <path id="Path_382" data-name="Path 382" d="M52.9,32.173H38.1l-2.555,5.088H53.056a2.536,2.536,0,0,0,2.51-2.158,2.7,2.7,0,0,0,.022-.4c0-.039.008-.076.007-.116h0v0a2.658,2.658,0,0,0-2.7-2.4" transform="translate(691.322 82.481)" fill="red"></path>
    <path id="Path_383" data-name="Path 383" d="M81.759,7.031a.786.786,0,0,1,.878-.9H95.973a8.284,8.284,0,0,1,3.329.68,8.672,8.672,0,0,1,4.594,4.6,8.466,8.466,0,0,1,.681,3.381,8.337,8.337,0,0,1-.461,2.805,7.3,7.3,0,0,1-1.34,2.324,10.04,10.04,0,0,1,2.282,3.16,9.077,9.077,0,0,1,.858,3.873,8.666,8.666,0,0,1-.7,3.454,9.5,9.5,0,0,1-1.906,2.878,9.06,9.06,0,0,1-2.795,1.968,8.083,8.083,0,0,1-3.37.721H82.637a.776.776,0,0,1-.878-.878Zm7.766,5.045V17.9H93.8a3.462,3.462,0,0,0,1.257-.219,2.973,2.973,0,0,0,.973-.607,2.775,2.775,0,0,0,.638-.921,3.028,3.028,0,0,0,.01-2.292,2.77,2.77,0,0,0-.628-.921,3.036,3.036,0,0,0-.963-.628,3.163,3.163,0,0,0-1.224-.23Zm0,11.22v6.72h5.38a2.654,2.654,0,0,0,1.182-.272,3.417,3.417,0,0,0,.984-.733,3.541,3.541,0,0,0,.68-1.069,3.324,3.324,0,0,0,.021-2.48,3.621,3.621,0,0,0-.65-1.079,3.482,3.482,0,0,0-.983-.785,2.575,2.575,0,0,0-1.235-.3Z" transform="translate(689.14 83.71)" fill="#fff"></path>
    <path id="Path_384" data-name="Path 384" d="M109.73,18.3a13.226,13.226,0,0,1,7.044-6.991,13.4,13.4,0,0,1,10.31.01,13.265,13.265,0,0,1,7.055,7,13.079,13.079,0,0,1-.01,10.226,13.342,13.342,0,0,1-7.055,7.013,13.321,13.321,0,0,1-10.3,0,13.512,13.512,0,0,1-4.208-2.816,13.073,13.073,0,0,1-2.836-4.187,13.217,13.217,0,0,1,0-10.258m6.762,7.568a6.488,6.488,0,0,0,1.193,2.041,5.588,5.588,0,0,0,1.843,1.393,5.506,5.506,0,0,0,2.4.512,5.338,5.338,0,0,0,2.386-.523,5.835,5.835,0,0,0,1.842-1.4,6.292,6.292,0,0,0,1.194-2.029,7.26,7.26,0,0,0,0-4.857,6.388,6.388,0,0,0-1.182-2.03,5.624,5.624,0,0,0-1.832-1.392,5.439,5.439,0,0,0-2.387-.513,5.5,5.5,0,0,0-2.4.513,5.787,5.787,0,0,0-1.853,1.381,6.323,6.323,0,0,0-1.2,2.021,7.18,7.18,0,0,0,0,4.888" transform="translate(687.868 83.514)" fill="#fff"></path>
    <path id="Path_385" data-name="Path 385" d="M139.193,18.3a13.226,13.226,0,0,1,7.044-6.991,13.4,13.4,0,0,1,10.31.01,13.265,13.265,0,0,1,7.055,7,13.079,13.079,0,0,1-.01,10.226,13.342,13.342,0,0,1-7.055,7.013,13.321,13.321,0,0,1-10.3,0,13.512,13.512,0,0,1-4.208-2.816,13.072,13.072,0,0,1-2.836-4.187,13.217,13.217,0,0,1,0-10.258m6.762,7.568a6.487,6.487,0,0,0,1.193,2.041A5.588,5.588,0,0,0,148.99,29.3a5.506,5.506,0,0,0,2.4.512,5.338,5.338,0,0,0,2.386-.523,5.836,5.836,0,0,0,1.842-1.4,6.292,6.292,0,0,0,1.194-2.029,7.26,7.26,0,0,0,0-4.857,6.388,6.388,0,0,0-1.182-2.03,5.624,5.624,0,0,0-1.832-1.392,5.439,5.439,0,0,0-2.387-.513,5.5,5.5,0,0,0-2.4.513,5.787,5.787,0,0,0-1.853,1.381,6.323,6.323,0,0,0-1.2,2.021,7.179,7.179,0,0,0,0,4.888" transform="translate(686.477 83.514)" fill="#fff"></path>
    <path id="Path_386" data-name="Path 386" d="M184.23,21.794a5.486,5.486,0,0,0-.282-1.8,4.185,4.185,0,0,0-.8-1.4,3.475,3.475,0,0,0-1.225-.9,3.789,3.789,0,0,0-1.548-.314,3.72,3.72,0,0,0-1.54.314,3.452,3.452,0,0,0-1.2.89,4.031,4.031,0,0,0-.775,1.391,5.724,5.724,0,0,0-.273,1.822V35.233a.845.845,0,0,1-.24.712,1.054,1.054,0,0,1-.722.231h-5.8a.833.833,0,0,1-.942-.942v-23.8a.832.832,0,0,1,.942-.941h3.663a1.387,1.387,0,0,1,.9.345,1.58,1.58,0,0,1,.544.806l.565,2.26a8.2,8.2,0,0,1,3.214-2.826,9.349,9.349,0,0,1,3.966-.837,9.842,9.842,0,0,1,1.811.179,7.742,7.742,0,0,1,1.884.617,7.916,7.916,0,0,1,1.8,1.192,7.62,7.62,0,0,1,1.539,1.885,10.621,10.621,0,0,1,3.527-2.878,9.355,9.355,0,0,1,4.218-.995,8.818,8.818,0,0,1,4.145.921,8.4,8.4,0,0,1,2.92,2.512,11.213,11.213,0,0,1,1.738,3.705,17.057,17.057,0,0,1,.575,4.5V35.254a.824.824,0,0,1-.942.921h-5.673a.814.814,0,0,1-.921-.921V21.815a6.369,6.369,0,0,0-.24-1.8,3.94,3.94,0,0,0-.712-1.392,3.323,3.323,0,0,0-1.152-.9,3.529,3.529,0,0,0-1.538-.324,3.923,3.923,0,0,0-1.582.314,3.44,3.44,0,0,0-1.235.9A4.364,4.364,0,0,0,192.038,20a5.277,5.277,0,0,0-.292,1.811l.021,13.439a.814.814,0,0,1-.921.921h-5.694a.814.814,0,0,1-.921-.921Z" transform="translate(685.026 83.516)" fill="#fff"></path>
    <path id="Path_387" data-name="Path 387" d="M211.61,32a1.27,1.27,0,0,1-.178-.451.912.912,0,0,1,.042-.471,1.412,1.412,0,0,1,.356-.513l2.826-2.764a.759.759,0,0,1,.544-.251,1.28,1.28,0,0,1,.775.376q.5.44,1.067.859a8.068,8.068,0,0,0,1.194.733,7.377,7.377,0,0,0,1.3.5,4.962,4.962,0,0,0,1.361.189,5.311,5.311,0,0,0,1.319-.136,2.341,2.341,0,0,0,.837-.376,1.3,1.3,0,0,0,.44-.566,1.935,1.935,0,0,0,.125-.7,1.61,1.61,0,0,0-.156-.742,1.515,1.515,0,0,0-.6-.566,7.025,7.025,0,0,0-1.2-.533q-.765-.273-2-.628a16.511,16.511,0,0,1-3.328-1.341,8.408,8.408,0,0,1-2.312-1.822,6.814,6.814,0,0,1-1.351-2.4,9.914,9.914,0,0,1-.439-3.067,6.488,6.488,0,0,1,.638-2.868,6.384,6.384,0,0,1,1.863-2.271,9.234,9.234,0,0,1,3.015-1.5,13.994,13.994,0,0,1,4.072-.544,11.054,11.054,0,0,1,2.962.355,10.087,10.087,0,0,1,2.23.9,9.967,9.967,0,0,1,1.685,1.182q.723.639,1.329,1.2a1.188,1.188,0,0,1,.451.733q.031.357-.471.8L226.924,18a1.1,1.1,0,0,1-.649.314,1.15,1.15,0,0,1-.67-.335c-.238-.2-.478-.391-.723-.586a5,5,0,0,0-.784-.514A4.387,4.387,0,0,0,222,16.389a3.282,3.282,0,0,0-1.768.377,1.051,1.051,0,0,0-.576.858,1.082,1.082,0,0,0,.262.765,2.375,2.375,0,0,0,.879.523q.617.24,1.623.523t2.47.764a11.148,11.148,0,0,1,3.266,1.591,7.809,7.809,0,0,1,1.947,2.03,6.9,6.9,0,0,1,.942,2.261,11.055,11.055,0,0,1,.252,2.324,7.343,7.343,0,0,1-.827,3.527,8.061,8.061,0,0,1-2.2,2.6,9.979,9.979,0,0,1-3.13,1.612,12.035,12.035,0,0,1-3.643.555,17.316,17.316,0,0,1-2.553-.189,11.128,11.128,0,0,1-4.9-2,10.771,10.771,0,0,1-2.156-2.1A4.856,4.856,0,0,1,211.61,32" transform="translate(683.018 83.52)" fill="#fff"></path>
    <path id="Path_388" data-name="Path 388" d="M235.495,1.675A1.951,1.951,0,0,1,235.85.482a1.524,1.524,0,0,1,1.3-.482h4.6a1.377,1.377,0,0,1,1.162.451,1.969,1.969,0,0,1,.345,1.224v3.81a1.413,1.413,0,0,1-.387,1.161,1.784,1.784,0,0,1-1.12.3h-4.6a2.2,2.2,0,0,1-1.194-.293,1.265,1.265,0,0,1-.46-1.152Zm.021,9.253a.781.781,0,0,1,.282-.659.952.952,0,0,1,.6-.22h5.966a.871.871,0,0,1,.628.24.842.842,0,0,1,.252.639V34.814a.776.776,0,0,1-.879.878h-5.966a.776.776,0,0,1-.878-.878Z" transform="translate(681.882 84)" fill="#fff"></path>
    <path id="Path_389" data-name="Path 389" d="M257.3,17.336V34.962a.787.787,0,0,1-.9.879h-6.008a.777.777,0,0,1-.878-.879V17.336H246.71a.721.721,0,0,1-.817-.816V11.1a.742.742,0,0,1,.817-.8h2.805V6.179a1.218,1.218,0,0,1,.189-.712,1.59,1.59,0,0,1,.795-.482l5.255-1.737a1.41,1.41,0,0,1,.482-.084,1.019,1.019,0,0,1,.763.313,1.306,1.306,0,0,1,.3.942V10.3h3.37a.717.717,0,0,1,.6.252.857.857,0,0,1,.2.544V16.52a.712.712,0,0,1-.8.816Z" transform="translate(681.391 83.85)" fill="#fff"></path>
    <path id="Path_390" data-name="Path 390" d="M282.923,27.764a.662.662,0,0,1,.566.293l2.574,3.559a1.294,1.294,0,0,1,.313.742.816.816,0,0,1-.355.618A15.425,15.425,0,0,1,283.53,34.8a13.28,13.28,0,0,1-2.428,1.11,12.358,12.358,0,0,1-2.366.544,18.986,18.986,0,0,1-2.345.146,12.4,12.4,0,0,1-4.982-1.036,13.61,13.61,0,0,1-7.087-6.993,12.331,12.331,0,0,1-1.078-5.117,13.8,13.8,0,0,1,.942-5.108,12.793,12.793,0,0,1,2.648-4.177,12.416,12.416,0,0,1,4.093-2.826,13.047,13.047,0,0,1,5.254-1.036,11.238,11.238,0,0,1,2.544.313,11.8,11.8,0,0,1,2.669.983,12.98,12.98,0,0,1,2.533,1.706,11.065,11.065,0,0,1,2.135,2.481,13.056,13.056,0,0,1,1.476,3.307,14.635,14.635,0,0,1,.555,4.188,4.531,4.531,0,0,1-.158,1.319,1.414,1.414,0,0,1-.523.763,2.2,2.2,0,0,1-.932.357,8.676,8.676,0,0,1-1.381.093H270.614a6.509,6.509,0,0,0,.837,1.843,5.748,5.748,0,0,0,2.973,2.282,5.916,5.916,0,0,0,1.926.314,10.289,10.289,0,0,0,2.387-.232,7.018,7.018,0,0,0,1.6-.575,5.849,5.849,0,0,0,1.12-.743q.46-.4.921-.753a.943.943,0,0,1,.544-.189m-8.582-11.1a5.219,5.219,0,0,0-1.382.795,5.91,5.91,0,0,0-1.11,1.174,8.622,8.622,0,0,0-.838,1.443h10.153a6.6,6.6,0,0,0-2.135-2.742,5.142,5.142,0,0,0-3.077-.963,4.4,4.4,0,0,0-1.611.293" transform="translate(680.571 83.513)" fill="#fff"></path>
    <path id="Path_391" data-name="Path 391" d="M292.05,31.2a.767.767,0,0,1,.252-.639.863.863,0,0,1,.544-.2h5.568a.835.835,0,0,1,.419.094.68.68,0,0,1,.252.23.911.911,0,0,1,.114.272,1.035,1.035,0,0,1,.032.219v5.151a.733.733,0,0,1-.1.408.806.806,0,0,1-.241.241.936.936,0,0,1-.272.114.923.923,0,0,1-.2.031h-5.568a1.037,1.037,0,0,1-.471-.146.693.693,0,0,1-.231-.241.785.785,0,0,1-.094-.408Z" transform="translate(679.211 82.566)" fill="#fff"></path>
    <path id="Path_392" data-name="Path 392" d="M304.89,19.8h-2.784a.8.8,0,0,1-.556-.2.767.767,0,0,1-.219-.6v-5.3a.747.747,0,0,1,.231-.6.809.809,0,0,1,.544-.2h2.784V10.525a8.5,8.5,0,0,1,.691-3.4,8.213,8.213,0,0,1,2.01-2.815,9.7,9.7,0,0,1,3.234-1.927,12.473,12.473,0,0,1,4.365-.712,1.543,1.543,0,0,1,1.037.241,1.338,1.338,0,0,1,.24.932V7.49a1.026,1.026,0,0,1-.314.89,1.554,1.554,0,0,1-.9.22,4.894,4.894,0,0,0-1.162.126,1.946,1.946,0,0,0-.869.451,2.052,2.052,0,0,0-.544.9,4.858,4.858,0,0,0-.189,1.476v1.361h3.81a.694.694,0,0,1,.775.795V19a.694.694,0,0,1-.775.8h-3.81V34.914a.758.758,0,0,1-.858.858h-5.862a.768.768,0,0,1-.879-.858Z" transform="translate(678.773 83.921)" fill="#fff"></path>
    <path id="Path_393" data-name="Path 393" d="M335.511,21.794a5.485,5.485,0,0,0-.282-1.8,4.186,4.186,0,0,0-.8-1.4,3.476,3.476,0,0,0-1.225-.9,3.79,3.79,0,0,0-1.548-.314,3.72,3.72,0,0,0-1.54.314,3.46,3.46,0,0,0-1.2.89,4.031,4.031,0,0,0-.775,1.391,5.725,5.725,0,0,0-.272,1.822V35.233a.845.845,0,0,1-.24.712,1.054,1.054,0,0,1-.722.231h-5.8a.833.833,0,0,1-.942-.942v-23.8a.832.832,0,0,1,.942-.941h3.663a1.387,1.387,0,0,1,.9.345,1.58,1.58,0,0,1,.544.806l.565,2.26a8.2,8.2,0,0,1,3.214-2.826,9.349,9.349,0,0,1,3.966-.837,9.842,9.842,0,0,1,1.811.179,7.742,7.742,0,0,1,1.884.617,7.918,7.918,0,0,1,1.8,1.192A7.62,7.62,0,0,1,341,14.111a10.621,10.621,0,0,1,3.527-2.878,9.355,9.355,0,0,1,4.218-.995,8.818,8.818,0,0,1,4.145.921,8.4,8.4,0,0,1,2.92,2.512,11.214,11.214,0,0,1,1.738,3.705,17.058,17.058,0,0,1,.576,4.5V35.254a.824.824,0,0,1-.942.921H351.5a.814.814,0,0,1-.921-.921V21.815a6.368,6.368,0,0,0-.24-1.8,3.94,3.94,0,0,0-.712-1.392,3.324,3.324,0,0,0-1.152-.9,3.529,3.529,0,0,0-1.538-.324,3.923,3.923,0,0,0-1.582.314,3.44,3.44,0,0,0-1.235.9A4.365,4.365,0,0,0,343.319,20a5.276,5.276,0,0,0-.293,1.811l.021,13.439a.814.814,0,0,1-.921.921h-5.694a.814.814,0,0,1-.921-.921Z" transform="translate(677.884 83.516)" fill="#fff"></path>
    <rect id="Rectangle_166" data-name="Rectangle 166" width="342.941" height="35.897" transform="translate(693 84)" fill="none"></rect>
  </g>
</svg>