<?xml version="1.0" encoding="UTF-8"?>
<svg xmlns="http://www.w3.org/2000/svg" width="34" height="34" viewBox="0 0 34 34" fill="none">
  <g clip-path="url(#clip0_21_19)">
    <mask id="mask0_21_19" style="mask-type:luminance" maskUnits="userSpaceOnUse" x="0" y="0" width="34" height="34">
      <path d="M34 0H0V34H34V0Z" fill="white"></path>
    </mask>
    <g mask="url(#mask0_21_19)">
      <path d="M10.17 18.12L13.826 22.508C14.1226 22.8637 14.5481 23.0875 15.0093 23.1304C15.4704 23.1733 15.9298 23.0319 16.287 22.737C16.3681 22.6683 16.4433 22.593 16.512 22.512L23.83 13.732C24.1286 13.3766 24.2739 12.9173 24.2339 12.4549C24.194 11.9925 23.9721 11.5649 23.617 11.266C23.4434 11.1143 23.2405 10.9999 23.0208 10.9301C22.8011 10.8602 22.5693 10.8364 22.34 10.86C22.1107 10.8791 21.8875 10.9435 21.6833 11.0494C21.479 11.1553 21.2978 11.3006 21.15 11.477L21.138 11.497V11.49L15.168 18.653L12.858 15.881C12.7114 15.7039 12.531 15.5578 12.3274 15.451C12.1238 15.3442 11.901 15.279 11.672 15.259C11.619 15.254 11.566 15.252 11.512 15.252C11.1798 15.2526 10.8547 15.3478 10.5746 15.5264C10.2946 15.705 10.0711 15.9596 9.93035 16.2605C9.78961 16.5614 9.73741 16.8961 9.77985 17.2256C9.82229 17.555 9.95762 17.8656 10.17 18.121" fill="#FF0000"></path>
      <path d="M17 0.000976562C13.6377 0.000976563 10.3509 0.998009 7.55531 2.86599C4.75968 4.73398 2.58075 7.38901 1.29406 10.4954C0.00736582 13.6017 -0.329291 17.0198 0.326658 20.3175C0.982607 23.6152 2.6017 26.6443 4.97919 29.0218C7.35668 31.3993 10.3858 33.0184 13.6835 33.6743C16.9811 34.3303 20.3993 33.9936 23.5056 32.7069C26.612 31.4202 29.267 29.2413 31.135 26.4457C33.003 23.65 34 20.3633 34 17.001C33.9955 12.4937 32.203 8.17228 29.0159 4.98513C25.8287 1.79799 21.5073 0.00547711 17 0.000976562ZM17 30.718C14.2866 30.718 11.6341 29.9133 9.37793 28.4058C7.12181 26.8982 5.36341 24.7555 4.32511 22.2485C3.28681 19.7416 3.01525 16.9831 3.54476 14.3218C4.07427 11.6605 5.38108 9.21603 7.29992 7.29747C9.21875 5.37891 11.6634 4.07246 14.3248 3.54334C16.9861 3.01421 19.7446 3.28618 22.2514 4.32485C24.7582 5.36351 26.9007 7.12222 28.4079 9.37856C29.9151 11.6349 30.7194 14.2875 30.719 17.001C30.7148 20.638 29.268 24.1248 26.696 26.6964C24.1241 29.268 20.637 30.7143 17 30.718Z" fill="#FF0000"></path>
    </g>
    <g clip-path="url(#clip1_21_19)">
      <mask id="mask1_21_19" style="mask-type:luminance" maskUnits="userSpaceOnUse" x="0" y="0" width="34" height="34">
        <path d="M34 0H0V34H34V0Z" fill="white"></path>
      </mask>
      <g mask="url(#mask1_21_19)">
        <path d="M10.17 18.12L13.826 22.508C14.1226 22.8637 14.5481 23.0875 15.0093 23.1304C15.4704 23.1733 15.9298 23.0319 16.287 22.737C16.3681 22.6683 16.4433 22.593 16.512 22.512L23.83 13.732C24.1286 13.3766 24.2739 12.9173 24.2339 12.4549C24.194 11.9925 23.9721 11.5649 23.617 11.266C23.4434 11.1143 23.2405 10.9999 23.0208 10.9301C22.8011 10.8602 22.5693 10.8364 22.34 10.86C22.1107 10.8791 21.8875 10.9435 21.6833 11.0494C21.479 11.1553 21.2978 11.3006 21.15 11.477L21.138 11.497V11.49L15.168 18.653L12.858 15.881C12.7114 15.7039 12.531 15.5578 12.3274 15.451C12.1238 15.3442 11.901 15.279 11.672 15.259C11.619 15.254 11.566 15.252 11.512 15.252C11.1798 15.2526 10.8547 15.3478 10.5746 15.5264C10.2946 15.705 10.0711 15.9596 9.93035 16.2605C9.78961 16.5614 9.73741 16.8961 9.77985 17.2256C9.82229 17.555 9.95762 17.8656 10.17 18.121" fill="#FF0000"></path>
        <path d="M17 0.000976562C13.6377 0.000976563 10.3509 0.998009 7.55531 2.86599C4.75968 4.73398 2.58075 7.38901 1.29406 10.4954C0.00736582 13.6017 -0.329291 17.0198 0.326658 20.3175C0.982607 23.6152 2.6017 26.6443 4.97919 29.0218C7.35668 31.3993 10.3858 33.0184 13.6835 33.6743C16.9811 34.3303 20.3993 33.9936 23.5056 32.7069C26.612 31.4202 29.267 29.2413 31.135 26.4457C33.003 23.65 34 20.3633 34 17.001C33.9955 12.4937 32.203 8.17228 29.0159 4.98513C25.8287 1.79799 21.5073 0.00547711 17 0.000976562ZM17 30.718C14.2866 30.718 11.6341 29.9133 9.37793 28.4058C7.12181 26.8982 5.36341 24.7555 4.32511 22.2485C3.28681 19.7416 3.01525 16.9831 3.54476 14.3218C4.07427 11.6605 5.38108 9.21603 7.29992 7.29747C9.21875 5.37891 11.6634 4.07246 14.3248 3.54334C16.9861 3.01421 19.7446 3.28618 22.2514 4.32485C24.7582 5.36351 26.9007 7.12222 28.4079 9.37856C29.9151 11.6349 30.7194 14.2875 30.719 17.001C30.7148 20.638 29.268 24.1248 26.696 26.6964C24.1241 29.268 20.637 30.7143 17 30.718Z" fill="#FF0000"></path>
      </g>
    </g>
  </g>
  <defs>
    <clipPath id="clip0_21_19">
      <rect width="34" height="34" fill="white"></rect>
    </clipPath>
    <clipPath id="clip1_21_19">
      <rect width="34" height="34" fill="white"></rect>
    </clipPath>
  </defs>
</svg>
