<?xml version="1.0" encoding="UTF-8"?>
<svg xmlns="http://www.w3.org/2000/svg" width="39" height="35" viewBox="0 0 39 35" fill="none">
  <path d="M32.67 24.6167C32.8226 24.7769 33.0056 24.9014 33.2071 24.9823C33.4085 25.0631 33.6238 25.0984 33.8391 25.0859C34.0543 25.0734 34.2646 25.0134 34.4564 24.9097C34.6481 24.806 34.817 24.661 34.952 24.4841C37.5031 21.0852 38.8826 16.8758 38.865 12.5444C38.883 8.21267 37.5034 4.00277 34.952 0.603645C34.819 0.427685 34.6524 0.283146 34.4628 0.179431C34.2733 0.0757153 34.0652 0.0151455 33.852 0.00166077C33.6349 -0.00849161 33.4182 0.0279835 33.215 0.108862C33.0117 0.189741 32.8263 0.31333 32.67 0.472093L32.576 0.577335C32.315 0.850295 32.158 1.21443 32.1348 1.60091C32.1116 1.98739 32.2237 2.36943 32.45 2.67481C34.5595 5.48408 35.7004 8.9638 35.686 12.5444C35.7004 16.1256 34.5595 19.606 32.45 22.4161C32.223 22.7206 32.1102 23.1023 32.133 23.4886C32.1559 23.8749 32.3128 24.2389 32.574 24.5115L32.67 24.6167Z" fill="#FF0000"></path>
  <path d="M12.0831 2.02843C11.0407 2.0037 10.0043 2.20154 9.03652 2.61003C8.06876 3.01851 7.1897 3.62916 6.4524 4.40511C5.7151 5.18106 5.13487 6.1062 4.74673 7.1247C4.35859 8.14319 4.17059 9.2339 4.1941 10.331C4.1941 12.5328 5.02521 14.6445 6.50459 16.2014C7.98397 17.7583 9.99044 18.633 12.0826 18.633C14.1748 18.633 16.1812 17.7583 17.6606 16.2014C19.14 14.6445 19.9711 12.5328 19.9711 10.331C19.9949 9.234 19.8071 8.14334 19.4192 7.12485C19.0313 6.10637 18.4513 5.1812 17.7141 4.40522C16.977 3.62924 16.0981 3.01856 15.1304 2.61005C14.1627 2.20154 13.1254 2.00368 12.0831 2.02843ZM12.0841 15.2889C11.4583 15.3198 10.8333 15.2129 10.249 14.9749C9.66477 14.737 9.13417 14.3732 8.69118 13.907C8.24819 13.4408 7.90258 12.8824 7.67647 12.2675C7.45036 11.6526 7.34874 10.9948 7.37811 10.3362C7.37811 9.02256 7.87397 7.76269 8.75661 6.83379C9.63925 5.90488 10.8364 5.38302 12.0846 5.38302C13.3328 5.38302 14.53 5.90488 15.4126 6.83379C16.2952 7.76269 16.7911 9.02256 16.7911 10.3362C16.8205 10.9948 16.7188 11.6526 16.4927 12.2675C16.2666 12.8824 15.921 13.4408 15.478 13.907C15.035 14.3732 14.5044 14.737 13.9202 14.9749C13.3359 15.2129 12.7099 15.3198 12.0841 15.2889Z" fill="#FF0000"></path>
  <path d="M26.648 18.2746C26.8093 18.4464 27.0062 18.5765 27.2232 18.6548C27.4403 18.7331 27.6716 18.7575 27.899 18.7261C28.1414 18.6935 28.3734 18.6026 28.577 18.4604C28.7806 18.3183 28.9503 18.1286 29.073 17.9063C29.9869 16.2811 30.469 14.4274 30.469 12.5389C30.469 10.6505 29.9869 8.79678 29.073 7.1716C28.9499 6.9498 28.78 6.76072 28.5765 6.61894C28.3729 6.47717 28.1411 6.38648 27.899 6.35387C27.6715 6.3223 27.4402 6.34663 27.2231 6.42496C27.0061 6.5033 26.8092 6.6335 26.648 6.80536L26.548 6.9106C26.3078 7.18482 26.1613 7.53546 26.1316 7.90711C26.1019 8.27876 26.1907 8.65024 26.384 8.96282C26.9776 10.0519 27.29 11.2855 27.29 12.541C27.29 13.7966 26.9776 15.0302 26.384 16.1193C26.1912 16.4324 26.1031 16.8042 26.1337 17.1759C26.1643 17.5476 26.3119 17.898 26.553 18.1715L26.648 18.2746Z" fill="#FF0000"></path>
  <path d="M9.984 25.2596H14.184C15.9887 25.2618 17.7188 26.0173 18.9949 27.3603C20.271 28.7033 20.9889 30.5241 20.991 32.4234V34.8682H24.172V32.4234C24.1683 29.637 23.1147 26.9658 21.2424 24.9957C19.37 23.0255 16.8317 21.9173 14.184 21.9139H9.984C7.33703 21.9184 4.79972 23.0271 2.92822 24.9971C1.05671 26.9671 0.00370238 29.6377 0 32.4234V34.8682H3.181V32.4234C3.18312 30.5241 3.90096 28.7033 5.17706 27.3603C6.45316 26.0173 8.18332 25.2618 9.988 25.2596" fill="#FF0000"></path>
</svg>
