<svg xmlns="http://www.w3.org/2000/svg" xmlns:xlink="http://www.w3.org/1999/xlink" width="403.222" height="49.969" viewBox="0 0 403.222 49.969">
  <defs>
    <clipPath id="clip-path">
      <rect id="Rectangle_196" data-name="Rectangle 196" width="403.222" height="49.969" fill="none"></rect>
    </clipPath>
  </defs>
  <g id="Group_196" data-name="Group 196" transform="translate(0 0)">
    <g id="Group_195" data-name="Group 195" transform="translate(0 0)" clip-path="url(#clip-path)">
      <path id="Path_499" data-name="Path 499" d="M53.013,28.507a3.038,3.038,0,0,0,.817-2.218,3.125,3.125,0,0,0-3.171-2.826H42.928l-3,5.974H50.845a2.962,2.962,0,0,0,2.167-.931" transform="translate(4.794 2.817)" fill="red"></path>
      <path id="Path_500" data-name="Path 500" d="M39.133,12.078H55.562a3.048,3.048,0,0,0,3.051-2.391A2.99,2.99,0,0,0,55.684,6.1H41.655Z" transform="translate(4.698 0.733)" fill="red"></path>
      <path id="Path_501" data-name="Path 501" d="M9.406,12.078H25.275L26.828,6.1H9.284a2.992,2.992,0,0,0-2.93,3.583,3.05,3.05,0,0,0,3.052,2.391" transform="translate(0.756 0.733)" fill="red"></path>
      <path id="Path_502" data-name="Path 502" d="M10.535,26.289a3.028,3.028,0,0,0,.815,2.218,2.962,2.962,0,0,0,2.167.931h6.2l1.552-5.974H13.705a3.124,3.124,0,0,0-3.17,2.826" transform="translate(1.265 2.817)" fill="red"></path>
      <path id="Path_503" data-name="Path 503" d="M28.384,38.154l1.075-5.981H7.377A3.124,3.124,0,0,0,4.207,35V35h0c0,.047.007.091.007.138a3.323,3.323,0,0,0,.027.474A2.982,2.982,0,0,0,7.19,38.154Z" transform="translate(0.505 3.863)" fill="red"></path>
      <path id="Path_504" data-name="Path 504" d="M68.488,17.573a3.124,3.124,0,0,0-3.17-2.826H38.006l-2.524,5.974H65.505a2.961,2.961,0,0,0,2.166-.931,3,3,0,0,0,.817-2.218" transform="translate(4.26 1.77)" fill="red"></path>
      <path id="Path_505" data-name="Path 505" d="M23.516,20.721l1.552-5.974H3.172A3.123,3.123,0,0,0,0,17.573,2.99,2.99,0,0,0,.82,19.791a2.957,2.957,0,0,0,2.166.931Z" transform="translate(0 1.77)" fill="red"></path>
      <path id="Path_506" data-name="Path 506" d="M81.759,7.189a.924.924,0,0,1,1.033-1.058H98.468a9.738,9.738,0,0,1,3.913.8,10.2,10.2,0,0,1,5.4,5.413,9.952,9.952,0,0,1,.8,3.975,9.8,9.8,0,0,1-.542,3.3,8.579,8.579,0,0,1-1.575,2.732,11.8,11.8,0,0,1,2.683,3.715,10.671,10.671,0,0,1,1.008,4.553,10.187,10.187,0,0,1-.823,4.06,11.173,11.173,0,0,1-2.24,3.384,10.65,10.65,0,0,1-3.285,2.314,9.5,9.5,0,0,1-3.962.848H82.792a.912.912,0,0,1-1.033-1.033Zm9.13,5.931v6.84h5.02a4.07,4.07,0,0,0,1.477-.258,3.5,3.5,0,0,0,1.144-.713,3.263,3.263,0,0,0,.75-1.083,3.56,3.56,0,0,0,.012-2.695,3.256,3.256,0,0,0-.738-1.083,3.569,3.569,0,0,0-1.132-.738,3.719,3.719,0,0,0-1.439-.27Zm0,13.19v7.9h6.325a3.12,3.12,0,0,0,1.39-.319,4.016,4.016,0,0,0,1.157-.861,4.162,4.162,0,0,0,.8-1.257,3.907,3.907,0,0,0,.025-2.916,4.257,4.257,0,0,0-.764-1.268,4.093,4.093,0,0,0-1.156-.923,3.027,3.027,0,0,0-1.452-.356Z" transform="translate(9.816 0.736)" fill="#0f273d"></path>
      <path id="Path_507" data-name="Path 507" d="M109.912,19.707a15.548,15.548,0,0,1,8.281-8.218,15.758,15.758,0,0,1,12.12.011,15.594,15.594,0,0,1,8.294,8.232,15.375,15.375,0,0,1-.012,12.022A15.685,15.685,0,0,1,130.3,40a15.66,15.66,0,0,1-12.108,0,15.884,15.884,0,0,1-4.946-3.311,15.368,15.368,0,0,1-3.334-4.922,15.538,15.538,0,0,1,0-12.059m7.949,8.9a7.627,7.627,0,0,0,1.4,2.4,6.569,6.569,0,0,0,2.166,1.638,6.472,6.472,0,0,0,2.818.6,6.275,6.275,0,0,0,2.8-.615,6.86,6.86,0,0,0,2.165-1.649,7.4,7.4,0,0,0,1.4-2.386,8.534,8.534,0,0,0,0-5.71,7.509,7.509,0,0,0-1.39-2.387,6.611,6.611,0,0,0-2.154-1.636,6.394,6.394,0,0,0-2.806-.6,6.468,6.468,0,0,0-2.817.6,6.8,6.8,0,0,0-2.179,1.623,7.433,7.433,0,0,0-1.415,2.376,8.44,8.44,0,0,0,0,5.746" transform="translate(13.05 1.234)" fill="#0f273d"></path>
      <path id="Path_508" data-name="Path 508" d="M139.375,19.707a15.548,15.548,0,0,1,8.281-8.218,15.758,15.758,0,0,1,12.12.011,15.594,15.594,0,0,1,8.294,8.232,15.375,15.375,0,0,1-.012,12.022A15.685,15.685,0,0,1,159.763,40a15.66,15.66,0,0,1-12.108,0,15.884,15.884,0,0,1-4.946-3.311,15.368,15.368,0,0,1-3.334-4.922,15.538,15.538,0,0,1,0-12.059m7.949,8.9a7.626,7.626,0,0,0,1.4,2.4,6.569,6.569,0,0,0,2.166,1.638,6.473,6.473,0,0,0,2.818.6,6.275,6.275,0,0,0,2.8-.615,6.86,6.86,0,0,0,2.165-1.649,7.4,7.4,0,0,0,1.4-2.386,8.535,8.535,0,0,0,0-5.71,7.51,7.51,0,0,0-1.39-2.387,6.611,6.611,0,0,0-2.154-1.636,6.394,6.394,0,0,0-2.806-.6,6.468,6.468,0,0,0-2.817.6,6.8,6.8,0,0,0-2.179,1.623,7.433,7.433,0,0,0-1.415,2.376,8.44,8.44,0,0,0,0,5.746" transform="translate(16.587 1.234)" fill="#0f273d"></path>
      <path id="Path_509" data-name="Path 509" d="M186.924,23.823a6.449,6.449,0,0,0-.332-2.116,4.92,4.92,0,0,0-.935-1.65A4.086,4.086,0,0,0,184.216,19a4.455,4.455,0,0,0-1.82-.37,4.373,4.373,0,0,0-1.81.37,4.057,4.057,0,0,0-1.415,1.046,4.739,4.739,0,0,0-.911,1.635,6.729,6.729,0,0,0-.32,2.142v15.8a.993.993,0,0,1-.282.837,1.239,1.239,0,0,1-.849.271h-6.817a.979.979,0,0,1-1.108-1.108V11.641a.979.979,0,0,1,1.108-1.107H174.3a1.631,1.631,0,0,1,1.058.405,1.857,1.857,0,0,1,.64.948l.664,2.657a9.645,9.645,0,0,1,3.778-3.322,10.99,10.99,0,0,1,4.663-.985,11.57,11.57,0,0,1,2.129.211,9.1,9.1,0,0,1,2.214.726,9.306,9.306,0,0,1,2.117,1.4,8.957,8.957,0,0,1,1.809,2.215,12.486,12.486,0,0,1,4.146-3.384,11,11,0,0,1,4.959-1.169,10.367,10.367,0,0,1,4.872,1.083,9.872,9.872,0,0,1,3.433,2.954,13.182,13.182,0,0,1,2.043,4.356,20.053,20.053,0,0,1,.676,5.291V39.646a.968.968,0,0,1-1.108,1.083h-6.669a.957.957,0,0,1-1.083-1.083v-15.8a7.487,7.487,0,0,0-.282-2.117,4.632,4.632,0,0,0-.837-1.636,3.907,3.907,0,0,0-1.354-1.058,4.148,4.148,0,0,0-1.808-.381,4.612,4.612,0,0,0-1.859.37,4.044,4.044,0,0,0-1.452,1.057,5.131,5.131,0,0,0-.948,1.636,6.2,6.2,0,0,0-.344,2.129l.025,15.8a.957.957,0,0,1-1.083,1.083h-6.693a.957.957,0,0,1-1.083-1.083Z" transform="translate(20.277 1.229)" fill="#0f273d"></path>
      <path id="Path_510" data-name="Path 510" d="M211.644,35.831a1.493,1.493,0,0,1-.209-.53,1.073,1.073,0,0,1,.049-.553,1.66,1.66,0,0,1,.419-.6l3.322-3.249a.892.892,0,0,1,.64-.295,1.5,1.5,0,0,1,.911.442q.59.517,1.254,1.01a9.486,9.486,0,0,0,1.4.861,8.673,8.673,0,0,0,1.526.589,5.833,5.833,0,0,0,1.6.222,6.244,6.244,0,0,0,1.55-.16,2.752,2.752,0,0,0,.985-.442,1.527,1.527,0,0,0,.517-.665,2.275,2.275,0,0,0,.147-.824,1.893,1.893,0,0,0-.184-.873,1.781,1.781,0,0,0-.7-.665,8.258,8.258,0,0,0-1.416-.626q-.9-.321-2.351-.738a19.409,19.409,0,0,1-3.912-1.576,9.883,9.883,0,0,1-2.718-2.142,8.01,8.01,0,0,1-1.588-2.817,11.655,11.655,0,0,1-.516-3.605,7.627,7.627,0,0,1,.75-3.371,7.5,7.5,0,0,1,2.19-2.67,10.855,10.855,0,0,1,3.544-1.76,16.45,16.45,0,0,1,4.787-.64,13,13,0,0,1,3.482.418,11.858,11.858,0,0,1,2.621,1.058,11.717,11.717,0,0,1,1.98,1.39q.85.751,1.562,1.415a1.4,1.4,0,0,1,.53.861q.037.42-.553.936l-3.618,3.15a1.293,1.293,0,0,1-.763.37,1.352,1.352,0,0,1-.787-.394c-.28-.23-.562-.459-.85-.689a5.883,5.883,0,0,0-.922-.6,5.157,5.157,0,0,0-2.462-.578,3.858,3.858,0,0,0-2.079.444,1.236,1.236,0,0,0-.678,1.008,1.272,1.272,0,0,0,.308.9,2.792,2.792,0,0,0,1.034.615q.726.282,1.907.615t2.9.9a13.105,13.105,0,0,1,3.84,1.871,9.18,9.18,0,0,1,2.288,2.387,8.11,8.11,0,0,1,1.108,2.658,13,13,0,0,1,.3,2.732,8.632,8.632,0,0,1-.972,4.146,9.476,9.476,0,0,1-2.584,3.051,11.73,11.73,0,0,1-3.679,1.9,14.147,14.147,0,0,1-4.282.652,20.356,20.356,0,0,1-3-.222,13.082,13.082,0,0,1-5.759-2.349,12.663,12.663,0,0,1-2.535-2.474,5.715,5.715,0,0,1-.332-.479" transform="translate(25.383 1.219)" fill="#0f273d"></path>
      <path id="Path_511" data-name="Path 511" d="M235.5,1.969a2.294,2.294,0,0,1,.418-1.4A1.791,1.791,0,0,1,237.439,0h5.413a1.619,1.619,0,0,1,1.366.53,2.315,2.315,0,0,1,.405,1.439V6.448a1.661,1.661,0,0,1-.455,1.365,2.1,2.1,0,0,1-1.317.357h-5.413a2.584,2.584,0,0,1-1.4-.344,1.487,1.487,0,0,1-.541-1.354Zm.025,10.878a.918.918,0,0,1,.332-.775,1.119,1.119,0,0,1,.7-.259h7.014a1.024,1.024,0,0,1,.738.282.99.99,0,0,1,.3.752V40.926a.913.913,0,0,1-1.034,1.033h-7.014a.912.912,0,0,1-1.033-1.033Z" transform="translate(28.274 0)" fill="#0f273d"></path>
      <path id="Path_512" data-name="Path 512" d="M259.3,19.824V40.545a.925.925,0,0,1-1.058,1.034h-7.063a.913.913,0,0,1-1.033-1.034V19.824h-3.3a.847.847,0,0,1-.96-.959V12.491a.873.873,0,0,1,.96-.935h3.3V6.708a1.432,1.432,0,0,1,.222-.837,1.869,1.869,0,0,1,.934-.567l6.177-2.042a1.657,1.657,0,0,1,.567-.1,1.2,1.2,0,0,1,.9.369A1.536,1.536,0,0,1,259.3,4.64v6.915h3.962a.843.843,0,0,1,.7.3,1.008,1.008,0,0,1,.233.64v6.374a.837.837,0,0,1-.935.959Z" transform="translate(29.522 0.38)" fill="#0f273d"></path>
      <path id="Path_513" data-name="Path 513" d="M286.378,30.829a.778.778,0,0,1,.665.345l3.026,4.183a1.522,1.522,0,0,1,.368.873.959.959,0,0,1-.418.727,18.132,18.132,0,0,1-2.929,2.14,15.611,15.611,0,0,1-2.854,1.3,14.528,14.528,0,0,1-2.781.64,22.32,22.32,0,0,1-2.756.171A14.574,14.574,0,0,1,272.843,40a16,16,0,0,1-8.331-8.22,14.5,14.5,0,0,1-1.267-6.016,16.228,16.228,0,0,1,1.108-6,15.04,15.04,0,0,1,3.113-4.91,14.6,14.6,0,0,1,4.812-3.322,15.337,15.337,0,0,1,6.176-1.219,13.216,13.216,0,0,1,2.991.37,13.871,13.871,0,0,1,3.137,1.156,15.257,15.257,0,0,1,2.978,2.006,13.008,13.008,0,0,1,2.51,2.917A15.35,15.35,0,0,1,291.8,20.64a17.2,17.2,0,0,1,.653,4.923,5.326,5.326,0,0,1-.186,1.55,1.662,1.662,0,0,1-.615.9,2.585,2.585,0,0,1-1.1.42,10.2,10.2,0,0,1-1.623.11H271.908a7.651,7.651,0,0,0,.985,2.166,6.757,6.757,0,0,0,3.495,2.683,6.955,6.955,0,0,0,2.264.37,12.1,12.1,0,0,0,2.806-.272,8.248,8.248,0,0,0,1.882-.677,6.875,6.875,0,0,0,1.317-.874q.541-.467,1.083-.885a1.109,1.109,0,0,1,.64-.222M276.289,17.786a6.136,6.136,0,0,0-1.625.934,6.948,6.948,0,0,0-1.3,1.38,10.134,10.134,0,0,0-.985,1.7H284.31a7.755,7.755,0,0,0-2.51-3.224,6.044,6.044,0,0,0-3.617-1.132,5.171,5.171,0,0,0-1.894.345" transform="translate(31.606 1.237)" fill="#0f273d"></path>
      <path id="Path_514" data-name="Path 514" d="M292.05,31.35a.9.9,0,0,1,.3-.752,1.014,1.014,0,0,1,.64-.233h6.546a.981.981,0,0,1,.493.111.8.8,0,0,1,.3.27,1.07,1.07,0,0,1,.134.32,1.216,1.216,0,0,1,.038.258v6.055a.862.862,0,0,1-.123.479.947.947,0,0,1-.283.283,1.1,1.1,0,0,1-.32.134,1.084,1.084,0,0,1-.234.037h-6.546a1.219,1.219,0,0,1-.553-.171.815.815,0,0,1-.271-.283.923.923,0,0,1-.111-.479Z" transform="translate(35.064 3.645)" fill="#0f273d"></path>
      <path id="Path_515" data-name="Path 515" d="M305.514,22.983h-3.273a.937.937,0,0,1-.653-.234.9.9,0,0,1-.258-.7V15.82a.878.878,0,0,1,.271-.7.952.952,0,0,1,.64-.233h3.273V12.08a9.991,9.991,0,0,1,.812-4,9.655,9.655,0,0,1,2.363-3.31,11.4,11.4,0,0,1,3.8-2.265,14.664,14.664,0,0,1,5.131-.837,1.814,1.814,0,0,1,1.219.283,1.573,1.573,0,0,1,.282,1.1V8.511a1.206,1.206,0,0,1-.37,1.046,1.826,1.826,0,0,1-1.057.259,5.753,5.753,0,0,0-1.366.148,2.288,2.288,0,0,0-1.021.53,2.412,2.412,0,0,0-.64,1.057,5.711,5.711,0,0,0-.222,1.735v1.6h4.479a.815.815,0,0,1,.911.934v6.228a.816.816,0,0,1-.911.935h-4.479V40.75a.891.891,0,0,1-1.008,1.008h-6.891a.9.9,0,0,1-1.034-1.008Z" transform="translate(36.178 0.2)" fill="#0f273d"></path>
      <path id="Path_516" data-name="Path 516" d="M338.2,23.823a6.449,6.449,0,0,0-.332-2.116,4.921,4.921,0,0,0-.935-1.65A4.086,4.086,0,0,0,335.5,19a4.455,4.455,0,0,0-1.82-.37,4.373,4.373,0,0,0-1.81.37,4.067,4.067,0,0,0-1.415,1.046,4.738,4.738,0,0,0-.911,1.635,6.729,6.729,0,0,0-.32,2.142v15.8a.993.993,0,0,1-.282.837,1.239,1.239,0,0,1-.849.271h-6.817a.979.979,0,0,1-1.108-1.108V11.641a.979.979,0,0,1,1.108-1.107h4.307a1.631,1.631,0,0,1,1.058.405,1.857,1.857,0,0,1,.64.948l.664,2.657a9.645,9.645,0,0,1,3.778-3.322,10.99,10.99,0,0,1,4.663-.985,11.57,11.57,0,0,1,2.129.211,9.1,9.1,0,0,1,2.214.726,9.307,9.307,0,0,1,2.117,1.4,8.957,8.957,0,0,1,1.809,2.215,12.486,12.486,0,0,1,4.146-3.384,11,11,0,0,1,4.959-1.169,10.367,10.367,0,0,1,4.872,1.083,9.872,9.872,0,0,1,3.433,2.954,13.181,13.181,0,0,1,2.043,4.356,20.052,20.052,0,0,1,.677,5.291V39.646a.968.968,0,0,1-1.108,1.083h-6.669a.957.957,0,0,1-1.083-1.083v-15.8a7.487,7.487,0,0,0-.282-2.117,4.632,4.632,0,0,0-.837-1.636,3.907,3.907,0,0,0-1.354-1.058,4.148,4.148,0,0,0-1.808-.381,4.612,4.612,0,0,0-1.859.37,4.043,4.043,0,0,0-1.452,1.057,5.13,5.13,0,0,0-.948,1.636,6.2,6.2,0,0,0-.344,2.129l.025,15.8a.957.957,0,0,1-1.083,1.083h-6.693a.957.957,0,0,1-1.083-1.083Z" transform="translate(38.44 1.229)" fill="#0f273d"></path>
      <path id="Path_517" data-name="Path 517" d="M59.543,35a3.124,3.124,0,0,0-3.17-2.826H38.984L31.966,46.107l12.528-7.952H56.559a2.982,2.982,0,0,0,2.95-2.537,3.182,3.182,0,0,0,.026-.475c0-.046.01-.09.008-.137h0V35" transform="translate(3.838 3.863)" fill="red"></path>
    </g>
  </g>
</svg>