<?xml version="1.0" encoding="UTF-8"?>
<svg xmlns="http://www.w3.org/2000/svg" xmlns:xlink="http://www.w3.org/1999/xlink" width="535.098" height="66.312" viewBox="0 0 535.098 66.312">
  <defs>
    <clipPath id="clip-path">
      <rect id="Rectangle_187" data-name="Rectangle 187" width="535.098" height="66.312" transform="translate(0 0)" fill="none"></rect>
    </clipPath>
  </defs>
  <g id="Group_171" data-name="Group 171" transform="translate(0 0)" clip-path="url(#clip-path)">
    <path id="Path_508" data-name="Path 508" d="M57.292,30.156a4.031,4.031,0,0,0,1.084-2.943,4.147,4.147,0,0,0-4.208-3.75H43.909l-3.982,7.928H54.416a3.931,3.931,0,0,0,2.876-1.235" transform="translate(19.42 11.412)" fill="red"></path>
    <path id="Path_509" data-name="Path 509" d="M39.133,14.032h21.8a4.045,4.045,0,0,0,4.049-3.173A3.968,3.968,0,0,0,61.1,6.1H42.48Z" transform="translate(19.034 2.969)" fill="red"></path>
    <path id="Path_510" data-name="Path 510" d="M10.423,14.032H31.482L33.542,6.1H10.261a3.97,3.97,0,0,0-3.888,4.755,4.047,4.047,0,0,0,4.05,3.173" transform="translate(3.063 2.969)" fill="red"></path>
    <path id="Path_511" data-name="Path 511" d="M10.536,27.213a4.018,4.018,0,0,0,1.082,2.943,3.931,3.931,0,0,0,2.876,1.235h8.223l2.06-7.928H14.743a4.146,4.146,0,0,0-4.206,3.75" transform="translate(5.123 11.412)" fill="red"></path>
    <path id="Path_512" data-name="Path 512" d="M36.291,40.11l1.427-7.937H8.414a4.145,4.145,0,0,0-4.206,3.75v.007h0c0,.062.009.12.009.183a4.41,4.41,0,0,0,.036.629A3.957,3.957,0,0,0,8.165,40.11Z" transform="translate(2.046 15.648)" fill="red"></path>
    <path id="Path_513" data-name="Path 513" d="M79.283,18.5a4.146,4.146,0,0,0-4.206-3.75H38.831l-3.349,7.928H75.324A3.93,3.93,0,0,0,78.2,21.44,3.978,3.978,0,0,0,79.283,18.5" transform="translate(17.258 7.173)" fill="red"></path>
    <path id="Path_514" data-name="Path 514" d="M31.206,22.675l2.06-7.928H4.209A4.145,4.145,0,0,0,0,18.5,3.968,3.968,0,0,0,1.088,21.44a3.924,3.924,0,0,0,2.875,1.235Z" transform="translate(0 7.173)" fill="red"></path>
    <path id="Path_515" data-name="Path 515" d="M81.759,7.536a1.226,1.226,0,0,1,1.37-1.4h20.8a12.923,12.923,0,0,1,5.193,1.061,13.529,13.529,0,0,1,7.167,7.184,13.207,13.207,0,0,1,1.063,5.275,13.006,13.006,0,0,1-.719,4.376,11.385,11.385,0,0,1-2.09,3.625,15.662,15.662,0,0,1,3.56,4.93,14.16,14.16,0,0,1,1.338,6.042,13.519,13.519,0,0,1-1.092,5.388,14.828,14.828,0,0,1-2.973,4.49,14.133,14.133,0,0,1-4.36,3.071,12.61,12.61,0,0,1-5.257,1.125H83.129a1.211,1.211,0,0,1-1.37-1.37Zm12.115,7.87v9.077h6.662a5.4,5.4,0,0,0,1.961-.342,4.638,4.638,0,0,0,1.518-.947,4.33,4.33,0,0,0,1-1.437,4.724,4.724,0,0,0,.016-3.576,4.321,4.321,0,0,0-.98-1.437,4.736,4.736,0,0,0-1.5-.98,4.935,4.935,0,0,0-1.91-.358Zm0,17.5V43.393h8.394a4.141,4.141,0,0,0,1.845-.424,5.33,5.33,0,0,0,1.535-1.143,5.524,5.524,0,0,0,1.061-1.668,5.185,5.185,0,0,0,.033-3.869,5.649,5.649,0,0,0-1.014-1.683,5.432,5.432,0,0,0-1.534-1.225,4.017,4.017,0,0,0-1.926-.473Z" transform="translate(39.766 2.982)" fill="#fff"></path>
    <path id="Path_516" data-name="Path 516" d="M110.31,22.789A20.633,20.633,0,0,1,121.3,11.884a20.911,20.911,0,0,1,16.084.015,20.694,20.694,0,0,1,11.007,10.925,20.4,20.4,0,0,1-.016,15.953,20.815,20.815,0,0,1-11.007,10.94,20.782,20.782,0,0,1-16.068,0,21.078,21.078,0,0,1-6.564-4.394,20.394,20.394,0,0,1-4.425-6.531,20.619,20.619,0,0,1,0-16M120.859,34.6a10.121,10.121,0,0,0,1.861,3.184,8.718,8.718,0,0,0,2.875,2.173,8.589,8.589,0,0,0,3.74.8,8.327,8.327,0,0,0,3.722-.816,9.1,9.1,0,0,0,2.873-2.188,9.816,9.816,0,0,0,1.862-3.166,11.326,11.326,0,0,0,0-7.578,9.966,9.966,0,0,0-1.845-3.167,8.773,8.773,0,0,0-2.858-2.172,8.485,8.485,0,0,0-3.723-.8,8.583,8.583,0,0,0-3.738.8,9.027,9.027,0,0,0-2.891,2.154,9.864,9.864,0,0,0-1.877,3.153,11.2,11.2,0,0,0,0,7.625" transform="translate(52.867 5.001)" fill="#fff"></path>
    <path id="Path_517" data-name="Path 517" d="M139.773,22.789a20.633,20.633,0,0,1,10.989-10.906,20.911,20.911,0,0,1,16.084.015,20.694,20.694,0,0,1,11.007,10.925,20.4,20.4,0,0,1-.016,15.953,20.814,20.814,0,0,1-11.007,10.94,20.782,20.782,0,0,1-16.068,0,21.079,21.079,0,0,1-6.564-4.394,20.394,20.394,0,0,1-4.425-6.531,20.619,20.619,0,0,1,0-16M150.322,34.6a10.121,10.121,0,0,0,1.861,3.184,8.718,8.718,0,0,0,2.875,2.173,8.589,8.589,0,0,0,3.74.8,8.327,8.327,0,0,0,3.722-.816,9.1,9.1,0,0,0,2.873-2.188,9.816,9.816,0,0,0,1.862-3.166,11.326,11.326,0,0,0,0-7.578,9.966,9.966,0,0,0-1.845-3.167,8.774,8.774,0,0,0-2.858-2.172,8.485,8.485,0,0,0-3.723-.8,8.583,8.583,0,0,0-3.738.8,9.027,9.027,0,0,0-2.891,2.154,9.864,9.864,0,0,0-1.877,3.153,11.2,11.2,0,0,0,0,7.625" transform="translate(67.197 5.001)" fill="#fff"></path>
    <path id="Path_518" data-name="Path 518" d="M192.823,28.266a8.557,8.557,0,0,0-.44-2.808,6.528,6.528,0,0,0-1.241-2.189,5.421,5.421,0,0,0-1.911-1.4,5.912,5.912,0,0,0-2.415-.491,5.8,5.8,0,0,0-2.4.491,5.385,5.385,0,0,0-1.877,1.388,6.289,6.289,0,0,0-1.208,2.17,8.929,8.929,0,0,0-.425,2.842V49.232a1.318,1.318,0,0,1-.375,1.11,1.644,1.644,0,0,1-1.127.36h-9.046a1.3,1.3,0,0,1-1.47-1.47V12.1a1.3,1.3,0,0,1,1.47-1.469h5.715a2.164,2.164,0,0,1,1.4.538,2.464,2.464,0,0,1,.849,1.257l.881,3.526a12.8,12.8,0,0,1,5.014-4.409,14.584,14.584,0,0,1,6.188-1.307,15.354,15.354,0,0,1,2.826.279,12.078,12.078,0,0,1,2.939.963,12.35,12.35,0,0,1,2.809,1.859,11.887,11.887,0,0,1,2.4,2.94,16.57,16.57,0,0,1,5.5-4.49,14.594,14.594,0,0,1,6.58-1.552,13.757,13.757,0,0,1,6.466,1.437,13.1,13.1,0,0,1,4.556,3.92,17.493,17.493,0,0,1,2.711,5.781,26.612,26.612,0,0,1,.9,7.022V49.264a1.285,1.285,0,0,1-1.47,1.437h-8.85a1.27,1.27,0,0,1-1.437-1.437V28.3a9.936,9.936,0,0,0-.375-2.809,6.147,6.147,0,0,0-1.11-2.172,5.185,5.185,0,0,0-1.8-1.4,5.505,5.505,0,0,0-2.4-.505,6.12,6.12,0,0,0-2.467.491,5.366,5.366,0,0,0-1.926,1.4A6.809,6.809,0,0,0,205,25.473a8.231,8.231,0,0,0-.456,2.826l.033,20.965a1.27,1.27,0,0,1-1.437,1.437H194.26a1.27,1.27,0,0,1-1.437-1.437Z" transform="translate(82.143 4.979)" fill="#fff"></path>
    <path id="Path_519" data-name="Path 519" d="M211.718,44.229a1.982,1.982,0,0,1-.278-.7,1.424,1.424,0,0,1,.065-.734,2.2,2.2,0,0,1,.556-.8l4.409-4.312a1.184,1.184,0,0,1,.849-.391,2,2,0,0,1,1.208.587q.783.687,1.665,1.341a12.587,12.587,0,0,0,1.862,1.143,11.509,11.509,0,0,0,2.024.782,7.741,7.741,0,0,0,2.123.294,8.286,8.286,0,0,0,2.057-.213,3.651,3.651,0,0,0,1.307-.587,2.027,2.027,0,0,0,.687-.883,3.018,3.018,0,0,0,.195-1.094A2.512,2.512,0,0,0,230.2,37.5a2.363,2.363,0,0,0-.93-.883,10.96,10.96,0,0,0-1.879-.831q-1.193-.426-3.12-.98a25.757,25.757,0,0,1-5.192-2.091,13.116,13.116,0,0,1-3.607-2.842,10.63,10.63,0,0,1-2.108-3.738,15.466,15.466,0,0,1-.685-4.785,10.121,10.121,0,0,1,1-4.474,9.959,9.959,0,0,1,2.906-3.544,14.405,14.405,0,0,1,4.7-2.335,21.831,21.831,0,0,1,6.353-.849,17.245,17.245,0,0,1,4.621.554,15.736,15.736,0,0,1,3.478,1.4,15.549,15.549,0,0,1,2.628,1.845q1.128,1,2.073,1.877a1.853,1.853,0,0,1,.7,1.143q.049.557-.734,1.243l-4.8,4.18a1.716,1.716,0,0,1-1.012.491,1.794,1.794,0,0,1-1.045-.523c-.372-.3-.746-.609-1.128-.914a7.806,7.806,0,0,0-1.223-.8,6.844,6.844,0,0,0-3.267-.767,5.119,5.119,0,0,0-2.759.589,1.64,1.64,0,0,0-.9,1.338A1.688,1.688,0,0,0,224.682,23a3.705,3.705,0,0,0,1.372.816q.963.375,2.531.816t3.853,1.192a17.392,17.392,0,0,1,5.1,2.482,12.182,12.182,0,0,1,3.037,3.167A10.762,10.762,0,0,1,242.04,35a17.246,17.246,0,0,1,.392,3.625,11.455,11.455,0,0,1-1.29,5.5,12.575,12.575,0,0,1-3.429,4.049,15.567,15.567,0,0,1-4.883,2.515,18.774,18.774,0,0,1-5.682.865,27.012,27.012,0,0,1-3.984-.294,17.36,17.36,0,0,1-7.643-3.117,16.8,16.8,0,0,1-3.364-3.283,7.58,7.58,0,0,1-.44-.636" transform="translate(102.83 4.937)" fill="#fff"></path>
    <path id="Path_520" data-name="Path 520" d="M235.495,2.613a3.044,3.044,0,0,1,.554-1.861A2.377,2.377,0,0,1,238.075,0h7.184a2.148,2.148,0,0,1,1.813.7,3.072,3.072,0,0,1,.538,1.91V8.557a2.2,2.2,0,0,1-.6,1.812,2.782,2.782,0,0,1-1.748.474h-7.184a3.429,3.429,0,0,1-1.862-.456,1.974,1.974,0,0,1-.718-1.8Zm.033,14.436a1.218,1.218,0,0,1,.44-1.029,1.485,1.485,0,0,1,.93-.343h9.308a1.359,1.359,0,0,1,.98.375,1.314,1.314,0,0,1,.392,1V54.311a1.211,1.211,0,0,1-1.372,1.37H236.9a1.211,1.211,0,0,1-1.37-1.37Z" transform="translate(114.541 0)" fill="#fff"></path>
    <path id="Path_521" data-name="Path 521" d="M263.691,25.272v27.5a1.227,1.227,0,0,1-1.4,1.372h-9.373a1.212,1.212,0,0,1-1.37-1.372v-27.5h-4.376A1.125,1.125,0,0,1,245.893,24V15.541a1.158,1.158,0,0,1,1.274-1.241h4.376V7.867a1.9,1.9,0,0,1,.294-1.11A2.48,2.48,0,0,1,253.077,6l8.2-2.71a2.2,2.2,0,0,1,.752-.131,1.59,1.59,0,0,1,1.191.489,2.038,2.038,0,0,1,.474,1.47V14.3h5.257a1.119,1.119,0,0,1,.932.392,1.338,1.338,0,0,1,.309.849V24a1.111,1.111,0,0,1-1.241,1.272Z" transform="translate(119.598 1.539)" fill="#fff"></path>
    <path id="Path_522" data-name="Path 522" d="M293.943,37.542a1.033,1.033,0,0,1,.883.458l4.016,5.552a2.019,2.019,0,0,1,.489,1.158,1.273,1.273,0,0,1-.554.965,24.064,24.064,0,0,1-3.887,2.84,20.719,20.719,0,0,1-3.787,1.732,19.279,19.279,0,0,1-3.691.849,29.619,29.619,0,0,1-3.658.227,19.341,19.341,0,0,1-7.772-1.616A21.233,21.233,0,0,1,264.926,38.8a19.237,19.237,0,0,1-1.681-7.983,21.535,21.535,0,0,1,1.47-7.968,19.959,19.959,0,0,1,4.131-6.516,19.37,19.37,0,0,1,6.386-4.409,20.353,20.353,0,0,1,8.2-1.617,17.538,17.538,0,0,1,3.969.491,18.408,18.408,0,0,1,4.163,1.534,20.248,20.248,0,0,1,3.952,2.662,17.261,17.261,0,0,1,3.331,3.871,20.369,20.369,0,0,1,2.3,5.159,22.831,22.831,0,0,1,.867,6.533,7.069,7.069,0,0,1-.247,2.057,2.206,2.206,0,0,1-.816,1.191,3.43,3.43,0,0,1-1.454.557,13.535,13.535,0,0,1-2.154.146h-22.6a10.153,10.153,0,0,0,1.307,2.875,8.966,8.966,0,0,0,4.638,3.56,9.23,9.23,0,0,0,3,.491,16.051,16.051,0,0,0,3.723-.361,10.947,10.947,0,0,0,2.5-.9,9.124,9.124,0,0,0,1.748-1.159q.718-.62,1.437-1.174a1.471,1.471,0,0,1,.849-.294M280.555,20.233a8.142,8.142,0,0,0-2.157,1.24,9.219,9.219,0,0,0-1.732,1.831,13.45,13.45,0,0,0-1.307,2.252H291.2a10.291,10.291,0,0,0-3.331-4.278,8.021,8.021,0,0,0-4.8-1.5,6.862,6.862,0,0,0-2.513.458" transform="translate(128.038 5.012)" fill="#fff"></path>
    <path id="Path_523" data-name="Path 523" d="M292.05,31.672a1.2,1.2,0,0,1,.392-1,1.346,1.346,0,0,1,.849-.309h8.686a1.3,1.3,0,0,1,.654.147,1.061,1.061,0,0,1,.392.358,1.422,1.422,0,0,1,.178.425,1.614,1.614,0,0,1,.051.342v8.035a1.144,1.144,0,0,1-.164.636,1.256,1.256,0,0,1-.376.376,1.459,1.459,0,0,1-.425.178,1.439,1.439,0,0,1-.311.049h-8.686a1.617,1.617,0,0,1-.734-.227,1.082,1.082,0,0,1-.36-.376,1.226,1.226,0,0,1-.147-.636Z" transform="translate(142.048 14.769)" fill="#fff"></path>
    <path id="Path_524" data-name="Path 524" d="M306.883,29.953h-4.343a1.244,1.244,0,0,1-.867-.311,1.2,1.2,0,0,1-.342-.93V20.447a1.166,1.166,0,0,1,.36-.93,1.263,1.263,0,0,1,.849-.309h4.343V15.484a13.258,13.258,0,0,1,1.078-5.306A12.813,12.813,0,0,1,311.1,5.786a15.128,15.128,0,0,1,5.045-3.005,19.46,19.46,0,0,1,6.809-1.11,2.407,2.407,0,0,1,1.617.376,2.087,2.087,0,0,1,.375,1.454v7.249a1.6,1.6,0,0,1-.491,1.388,2.424,2.424,0,0,1-1.4.343,7.634,7.634,0,0,0-1.813.2,3.037,3.037,0,0,0-1.356.7,3.2,3.2,0,0,0-.849,1.4,7.579,7.579,0,0,0-.294,2.3v2.123h5.944a1.082,1.082,0,0,1,1.208,1.24v8.264a1.083,1.083,0,0,1-1.208,1.241h-5.944V53.531a1.182,1.182,0,0,1-1.338,1.338h-9.144a1.2,1.2,0,0,1-1.372-1.338Z" transform="translate(146.562 0.812)" fill="#fff"></path>
    <path id="Path_525" data-name="Path 525" d="M344.1,28.266a8.558,8.558,0,0,0-.44-2.808,6.529,6.529,0,0,0-1.241-2.189,5.422,5.422,0,0,0-1.912-1.4,5.912,5.912,0,0,0-2.415-.491,5.8,5.8,0,0,0-2.4.491,5.4,5.4,0,0,0-1.877,1.388,6.288,6.288,0,0,0-1.208,2.17,8.929,8.929,0,0,0-.425,2.842V49.232a1.318,1.318,0,0,1-.375,1.11,1.644,1.644,0,0,1-1.127.36h-9.046a1.3,1.3,0,0,1-1.47-1.47V12.1a1.3,1.3,0,0,1,1.47-1.469h5.715a2.164,2.164,0,0,1,1.4.538,2.465,2.465,0,0,1,.849,1.257l.881,3.526a12.8,12.8,0,0,1,5.014-4.409,14.584,14.584,0,0,1,6.188-1.307,15.355,15.355,0,0,1,2.826.279,12.078,12.078,0,0,1,2.939.963,12.351,12.351,0,0,1,2.809,1.859,11.886,11.886,0,0,1,2.4,2.94,16.569,16.569,0,0,1,5.5-4.49,14.594,14.594,0,0,1,6.58-1.552,13.757,13.757,0,0,1,6.466,1.437,13.1,13.1,0,0,1,4.556,3.92,17.492,17.492,0,0,1,2.711,5.781,26.609,26.609,0,0,1,.9,7.022V49.264A1.285,1.285,0,0,1,377.9,50.7h-8.85a1.27,1.27,0,0,1-1.437-1.437V28.3a9.934,9.934,0,0,0-.375-2.809,6.146,6.146,0,0,0-1.11-2.172,5.185,5.185,0,0,0-1.8-1.4,5.505,5.505,0,0,0-2.4-.505,6.119,6.119,0,0,0-2.467.491,5.366,5.366,0,0,0-1.926,1.4,6.809,6.809,0,0,0-1.258,2.172,8.232,8.232,0,0,0-.456,2.826l.033,20.965a1.27,1.27,0,0,1-1.437,1.437h-8.883a1.27,1.27,0,0,1-1.437-1.437Z" transform="translate(155.723 4.979)" fill="#fff"></path>
    <path id="Path_526" data-name="Path 526" d="M68.562,35.923a4.146,4.146,0,0,0-4.206-3.75H41.28L31.966,50.664,48.591,40.11H64.6a3.957,3.957,0,0,0,3.915-3.367,4.222,4.222,0,0,0,.034-.63c0-.061.013-.119.01-.181h0v-.007" transform="translate(15.548 15.648)" fill="red"></path>
  </g>
</svg>
