<?xml version="1.0" encoding="UTF-8"?>
<svg xmlns="http://www.w3.org/2000/svg" xmlns:xlink="http://www.w3.org/1999/xlink" width="612" height="152" viewBox="0 0 612 152">
  <defs>
    <clipPath id="clip-path">
      <rect id="Rectangle_195" data-name="Rectangle 195" width="612" height="152" transform="translate(654 2440)" fill="#fff" stroke="#707070" stroke-width="1"></rect>
    </clipPath>
    <linearGradient id="linear-gradient" x1="0.5" x2="0.5" y2="1" gradientUnits="objectBoundingBox">
      <stop offset="0" stop-color="#707070"></stop>
      <stop offset="1" stop-color="#707070"></stop>
    </linearGradient>
  </defs>
  <g id="Mask_Group_5" data-name="Mask Group 5" transform="translate(-654 -2440)" clip-path="url(#clip-path)">
    <g id="Group_194" data-name="Group 194" transform="translate(1547.739 880.977) rotate(90)" opacity="0.104" style="mix-blend-mode: luminosity;isolation: isolate">
      <path id="Union_4" data-name="Union 4" d="M152.959,244.131H58.005a4.768,4.768,0,0,1-.953-.1,4.827,4.827,0,0,1-3.757-5.7,4.971,4.971,0,0,1,5.029-3.812H351.509c3.73,0,6.9,1.6,7.539,3.841a3.272,3.272,0,0,1,.143.949,4.179,4.179,0,0,1-2.107,3.407,9.247,9.247,0,0,1-5.092,1.414ZM109.81,211.337H25.3c-2.739,0-5.162-2.08-5.291-4.542a4.856,4.856,0,0,1,1.321-3.58,4.76,4.76,0,0,1,3.46-1.489H350.341a7.79,7.79,0,0,1,4.718,1.5,4.182,4.182,0,0,1,1.8,3.576c-.174,2.461-3.485,4.54-7.23,4.54Zm69.568-33.011H93.622c-2.741,0-5.165-2.08-5.294-4.524a4.95,4.95,0,0,1,1.323-3.6,4.689,4.689,0,0,1,3.477-1.49H351.545a10.242,10.242,0,0,1,5.517,1.483,4.087,4.087,0,0,1,2.12,3.587c-.206,2.461-4.09,4.54-8.478,4.54Zm-32.017-32.992H42.289a5.264,5.264,0,0,1-5.262-4.231l.207-1.129-.177-.191c0-.011,0-.022,0-.032a4.821,4.821,0,0,1,4.734-4.046H352.171a8.853,8.853,0,0,1,5.1,1.509,4.31,4.31,0,0,1,1.832,2.526,3.843,3.843,0,0,1,.063.786v.046a3.223,3.223,0,0,0,.021.342c-.293,2.407-3.818,4.419-7.8,4.419Zm204.786-36.907H61.783a4.752,4.752,0,0,1-3.459-1.509,4.637,4.637,0,0,1-1.241-2.527,5.72,5.72,0,0,1-.043-.785v-.046c0-.113-.005-.223-.014-.342A5.225,5.225,0,0,1,62.31,98.8H351.423c3.872,0,7.317,1.907,7.769,4.231l-.306,1.129.261.191c0,.011,0,.022-.007.033-.536,2.309-3.53,4.046-6.987,4.046Zm-2.886-33.011H73.094a4.749,4.749,0,0,1-3.443-1.483,4.931,4.931,0,0,1-1.323-3.586,5.207,5.207,0,0,1,5.292-4.541H348.479c4.337,0,8.174,2.079,8.376,4.524a4.109,4.109,0,0,1-2.092,3.6,9.856,9.856,0,0,1-5.372,1.49Zm1.035-33.01H44.771a4.751,4.751,0,0,1-3.451-1.5,4.837,4.837,0,0,1-1.314-3.576c.128-2.46,2.55-4.539,5.288-4.539H349.62c3.745,0,7.059,2.079,7.235,4.541a4.2,4.2,0,0,1-1.807,3.58,7.81,7.81,0,0,1-4.73,1.489ZM153.611,9.611H68.33A4.977,4.977,0,0,1,63.293,5.77,4.818,4.818,0,0,1,68.008,0H356.445A11.2,11.2,0,0,1,357.9.1c3.977.527,6.557,3.071,5.743,5.7-.646,2.209-3.881,3.812-7.689,3.812Z" transform="translate(1590.228 363.506)" stroke="rgba(0,0,0,0)" stroke-width="1" fill="url(#linear-gradient)"></path>
      <path id="Union_5" data-name="Union 5" d="M179.333,178.326c-3.418,0-6.528-1.274-7.816-3h-87.9c-2.741,0-5.165-2.079-5.293-4.524a4.949,4.949,0,0,1,1.323-3.6,4.687,4.687,0,0,1,3.476-1.489H191.08a4.747,4.747,0,0,1,3.443,1.483,4.919,4.919,0,0,1,.968,1.516h155.1a10.145,10.145,0,0,1,5.487,1.483,4.089,4.089,0,0,1,2.109,3.587c-.205,2.461-4.068,4.54-8.433,4.54Zm-32.007-32.992c-3.146,0-6.008-1.27-7.2-3H62.29a5.266,5.266,0,0,1-5.263-4.231l.207-1.129-.176-.191c0-.011,0-.022,0-.033a4.821,4.821,0,0,1,4.733-4.046H201.044a4.755,4.755,0,0,1,3.459,1.509,4.657,4.657,0,0,1,.961,1.491H351.209a8.787,8.787,0,0,1,5.082,1.509,4.308,4.308,0,0,1,1.823,2.526,3.843,3.843,0,0,1,.063.786v.046a3.231,3.231,0,0,0,.021.342c-.291,2.407-3.8,4.419-7.762,4.419Zm203.86-36.907H41.783a4.751,4.751,0,0,1-3.458-1.509,4.644,4.644,0,0,1-1.242-2.527,5.865,5.865,0,0,1-.042-.785v-.046c0-.113,0-.223-.014-.342A5.225,5.225,0,0,1,42.31,98.8H350.465c3.855,0,7.284,1.907,7.733,4.231l-.3,1.129.26.191c0,.011,0,.022-.006.033-.535,2.309-3.514,4.046-6.956,4.046ZM352.7,75.416H73.094a4.749,4.749,0,0,1-3.443-1.483,4.931,4.931,0,0,1-1.323-3.586,5.207,5.207,0,0,1,5.292-4.541H351.907c4.421,0,8.331,2.079,8.538,4.524a4.094,4.094,0,0,1-2.134,3.6,10.184,10.184,0,0,1-5.475,1.49Zm-5.024-33.01H24.772a4.755,4.755,0,0,1-3.451-1.5,4.836,4.836,0,0,1-1.313-3.576c.128-2.46,2.549-4.539,5.288-4.539H347.013c3.7,0,6.983,2.079,7.158,4.541a4.217,4.217,0,0,1-1.787,3.58,7.675,7.675,0,0,1-4.68,1.489ZM153.41,9.611H78.33A4.977,4.977,0,0,1,73.292,5.77,4.818,4.818,0,0,1,78.007,0H351.036a10.631,10.631,0,0,1,1.419.1c3.875.527,6.39,3.071,5.6,5.7-.63,2.209-3.781,3.812-7.492,3.812Z" transform="translate(1590.228 633.645)" stroke="rgba(0,0,0,0)" stroke-width="1" fill="url(#linear-gradient)"></path>
    </g>
  </g>
</svg>
