<?xml version="1.0" encoding="UTF-8"?>
<svg xmlns="http://www.w3.org/2000/svg" width="34" height="39" viewBox="0 0 34 39" fill="none">
  <path d="M30.277 22.508C30.8764 22.1783 31.3799 21.6824 31.7337 21.0731C32.0875 20.4639 32.2784 19.7643 32.2859 19.0491C32.2934 18.3339 32.1172 17.63 31.7763 17.0126C31.4353 16.3952 30.9423 15.8876 30.35 15.5439L7.7 2.92997C7.1178 2.61243 6.46965 2.45471 5.81496 2.47127C5.16026 2.48784 4.51997 2.67814 3.95274 3.02476C3.38552 3.37137 2.90951 3.8632 2.56834 4.45518C2.22717 5.04716 2.03176 5.72036 2 6.41307V31.6388C2.02463 32.3347 2.21564 33.0125 2.55513 33.6089C2.89461 34.2052 3.37148 34.7006 3.94106 35.0485C4.51063 35.3965 5.15428 35.5856 5.81172 35.5983C6.46916 35.6109 7.11887 35.4467 7.7 35.1209L10.769 33.418" stroke="#FF0100" stroke-width="3"></path>
  <path d="M27.059 25.3831H24.454C24.1681 25.3861 23.8846 25.3286 23.6199 25.2141C23.3552 25.0997 23.1148 24.9304 22.9126 24.7163C22.7105 24.5022 22.5507 24.2476 22.4426 23.9673C22.3345 23.687 22.2802 23.3867 22.283 23.084V20.3252C22.283 19.7155 22.0543 19.1307 21.6471 18.6995C21.24 18.2684 20.6878 18.0261 20.112 18.0261C19.5362 18.0261 18.984 18.2684 18.5769 18.6995C18.1697 19.1307 17.941 19.7155 17.941 20.3252V23.084C17.9438 23.3867 17.8896 23.687 17.7815 23.9673C17.6734 24.2476 17.5136 24.5022 17.3114 24.7163C17.1092 24.9304 16.8688 25.0997 16.6041 25.2141C16.3395 25.3286 16.0559 25.3861 15.77 25.3831H13.165C12.5892 25.3831 12.037 25.6253 11.6299 26.0565C11.2227 26.4877 10.994 27.0725 10.994 27.6822C10.994 28.292 11.2227 28.8768 11.6299 29.3079C12.037 29.7391 12.5892 29.9813 13.165 29.9813H15.77C16.0559 29.9784 16.3395 30.0358 16.6041 30.1503C16.8688 30.2648 17.1092 30.434 17.3114 30.6481C17.5136 30.8622 17.6734 31.1168 17.7815 31.3971C17.8896 31.6774 17.9438 31.9777 17.941 32.2805V35.0392C17.941 35.649 18.1697 36.2338 18.5769 36.6649C18.984 37.0961 19.5362 37.3383 20.112 37.3383C20.6878 37.3383 21.24 37.0961 21.6471 36.6649C22.0543 36.2338 22.283 35.649 22.283 35.0392V32.2805C22.2802 31.9777 22.3345 31.6774 22.4426 31.3971C22.5507 31.1168 22.7105 30.8622 22.9126 30.6481C23.1148 30.434 23.3552 30.2648 23.6199 30.1503C23.8846 30.0358 24.1681 29.9784 24.454 29.9813H27.059C27.6348 29.9813 28.187 29.7391 28.5941 29.3079C29.0013 28.8768 29.23 28.292 29.23 27.6822C29.23 27.0725 29.0013 26.4877 28.5941 26.0565C28.187 25.6253 27.6348 25.3831 27.059 25.3831Z" stroke="#FF0100" stroke-width="2.5"></path>
</svg>
