<?xml version="1.0" encoding="UTF-8"?>
<svg xmlns="http://www.w3.org/2000/svg" xmlns:xlink="http://www.w3.org/1999/xlink" width="24" height="26" viewBox="0 0 24 26">
  <defs>
    <clipPath id="clip-path">
      <rect id="Rectangle_14" data-name="Rectangle 14" width="24" height="26" transform="translate(-0.167)" fill="#919497"></rect>
    </clipPath>
  </defs>
  <g id="Group_20" data-name="Group 20" transform="translate(0.167)">
    <g id="Group_19" data-name="Group 19" clip-path="url(#clip-path)">
      <path id="Path_6" data-name="Path 6" d="M3,10V23.717a2.747,2.747,0,0,0,2.743,2.743h12.8a2.747,2.747,0,0,0,2.743-2.743V10ZM8.487,21.888a.914.914,0,0,1-1.829,0v-8.23a.914.914,0,1,1,1.829,0Zm4.572,0a.914.914,0,0,1-1.829,0v-8.23a.914.914,0,1,1,1.829,0Zm4.572,0a.914.914,0,0,1-1.829,0v-8.23a.914.914,0,1,1,1.829,0Z" transform="translate(-0.257 -0.855)" fill="#919497"></path>
      <path id="Path_7" data-name="Path 7" d="M21.948,3.658H16.461V2.743A2.747,2.747,0,0,0,13.717,0H10.059A2.747,2.747,0,0,0,7.316,2.743v.914H1.829A1.831,1.831,0,0,0,0,5.487V6.4a.915.915,0,0,0,.914.914H22.862a.915.915,0,0,0,.914-.914V5.487a1.831,1.831,0,0,0-1.829-1.829m-12.8-.914a.916.916,0,0,1,.914-.914h3.658a.916.916,0,0,1,.914.914v.914H9.145Z" fill="#919497"></path>
    </g>
  </g>
</svg>
