<?xml version="1.0" encoding="UTF-8"?>
<svg xmlns="http://www.w3.org/2000/svg" xmlns:xlink="http://www.w3.org/1999/xlink" width="32.282" height="32.282" viewBox="0 0 32.282 32.282">
  <defs>
    <clipPath id="clip-path">
      <rect id="Rectangle_37" data-name="Rectangle 37" width="32.282" height="32.282" fill="#575757"></rect>
    </clipPath>
  </defs>
  <g id="Group_42" data-name="Group 42" transform="translate(0 0)">
    <g id="Group_41" data-name="Group 41" transform="translate(0 0)" clip-path="url(#clip-path)">
      <path id="Path_12" data-name="Path 12" d="M20.164,27.727a7.664,7.664,0,1,1,7.664-7.664,7.7,7.7,0,0,1-7.664,7.664m0-13.7A6.036,6.036,0,1,0,26.2,20.064a6.049,6.049,0,0,0-6.036-6.036" transform="translate(-4.022 -3.99)" fill="#575757"></path>
      <path id="Path_13" data-name="Path 13" d="M18.447,32.282H13.835l-1.289-3.934a16.193,16.193,0,0,1-2.509-1.017l-3.73,1.9L3.052,25.975l1.9-3.73a11.458,11.458,0,0,1-1.017-2.509L0,18.447V13.835l3.934-1.289a16.193,16.193,0,0,1,1.017-2.509l-1.9-3.73L6.307,3.052l3.73,1.9a11.458,11.458,0,0,1,2.509-1.017L13.835,0h4.612l1.289,3.934a16.193,16.193,0,0,1,2.509,1.017l3.73-1.9,3.255,3.255-1.9,3.73a11.458,11.458,0,0,1,1.017,2.509l3.934,1.289v4.612l-3.934,1.289a16.193,16.193,0,0,1-1.017,2.509l1.9,3.73-3.255,3.255-3.73-1.9a11.458,11.458,0,0,1-2.509,1.017Zm-3.459-1.56h2.306l1.221-3.662.407-.136A12.1,12.1,0,0,0,21.838,25.7l.407-.2L25.7,27.264l1.628-1.628-1.763-3.459.2-.407a11.066,11.066,0,0,0,1.221-2.916l.136-.407,3.662-1.221V14.92L27.128,13.7l-.136-.407a11.066,11.066,0,0,0-1.221-2.916l-.2-.407,1.763-3.459L25.7,4.883,22.245,6.646l-.407-.2a11.066,11.066,0,0,0-2.916-1.221l-.407-.136L17.294,1.424H14.988L13.768,5.087l-.407.136a12.1,12.1,0,0,0-2.916,1.221l-.407.2L6.579,4.883,4.951,6.511,6.714,9.97l-.2.407A11.066,11.066,0,0,0,5.29,13.293l-.136.407L1.492,14.92v2.306l3.662,1.221.136.407A11.066,11.066,0,0,0,6.511,21.77l.2.407L4.951,25.636l1.628,1.628L10.037,25.5l.407.2a11.066,11.066,0,0,0,2.916,1.221l.407.136Z" transform="translate(0 0)" fill="#575757"></path>
    </g>
  </g>
</svg>
