<?xml version="1.0" encoding="UTF-8"?>
<svg xmlns="http://www.w3.org/2000/svg" width="36" height="31" viewBox="0 0 36 31" fill="none">
  <g clip-path="url(#clip0_21_40)">
    <path d="M30.0999 30.906C30.5619 30.906 31.3339 30.906 32.2669 28.938L32.3539 28.751C34.4434 24.6311 35.515 20.0704 35.4789 15.451C35.5126 10.8374 34.4432 6.28256 32.3599 2.166L32.2679 1.972C31.3349 -1.19209e-07 30.5619 0 30.1019 0C29.6441 0.00697829 29.2071 0.192075 28.8835 0.516006C28.5599 0.839936 28.3753 1.2772 28.3689 1.735C28.5115 2.49397 28.7921 3.22033 29.1969 3.878C31.1155 7.43074 32.0864 11.4179 32.0159 15.455C32.0877 19.4912 31.1178 23.4778 29.1999 27.03C28.7942 27.6879 28.5135 28.4151 28.3719 29.175C28.3781 29.6322 28.5625 30.0688 28.8858 30.3921C29.2091 30.7154 29.6457 30.8998 30.1029 30.906" fill="#FF0000"></path>
    <path d="M22.3119 26.333C23.1009 26.333 23.6699 26.021 24.4119 24.372C25.6894 21.573 26.3431 18.5297 26.3279 15.453C26.3429 12.3763 25.6892 9.33309 24.4119 6.53401C23.6689 4.88801 23.0999 4.57501 22.3119 4.57501C21.8531 4.57607 21.4134 4.75878 21.089 5.08318C20.7646 5.40757 20.5819 5.84725 20.5809 6.30601C20.6561 6.86796 20.8475 7.40809 21.1429 7.89201C22.3547 10.2233 22.947 12.8269 22.8629 15.453C22.9471 18.0801 22.3548 20.6847 21.1429 23.017C20.8463 23.5003 20.6539 24.0401 20.5779 24.602C20.5789 25.0608 20.7616 25.5005 21.086 25.8248C21.4104 26.1492 21.8501 26.332 22.3089 26.333" fill="#FF0000"></path>
    <path d="M15.451 0.00202838C14.782 0.00202838 14.305 0.375028 13.524 1.03303L6.506 6.86303H1.733C1.27381 6.86329 0.833468 7.04569 0.508582 7.3702C0.183697 7.69471 0.000794375 8.13484 0 8.59403L0 22.319C0.00079317 22.7784 0.183631 23.2187 0.50846 23.5436C0.833289 23.8684 1.27362 24.0512 1.733 24.052H6.506L13.52 29.878C14.305 30.538 14.782 30.911 15.451 30.911C15.6791 30.9134 15.9053 30.8703 16.1166 30.7842C16.3278 30.6981 16.5197 30.5707 16.6811 30.4095C16.8424 30.2483 16.97 30.0566 17.0564 29.8454C17.1428 29.6343 17.1861 29.4081 17.184 29.18V1.73503C17.1861 1.50685 17.1428 1.28054 17.0564 1.06932C16.9701 0.858097 16.8425 0.666202 16.6812 0.504851C16.5198 0.3435 16.3279 0.215928 16.1167 0.129594C15.9055 0.0432587 15.6792 -0.000107978 15.451 0.00202838ZM13.72 25.537L7.757 20.581H3.465V10.328H7.757L13.72 5.37503V25.537Z" fill="#FF0000"></path>
  </g>
  <defs>
    <clipPath id="clip0_21_40">
      <rect width="35.48" height="30.906" fill="white"></rect>
    </clipPath>
  </defs>
</svg>
