<svg xmlns="http://www.w3.org/2000/svg" width="402.025" height="428.465" viewBox="0 0 402.025 428.465">
  <path id="Union_1" data-name="Union 1" d="M-6254,428.465h-155.222l36.586-72.845H-6040v72.845Zm-95.5-118.9,36.545-72.765H-6040v72.663h-173.765q-1.367.1-2.756.1Zm-31.023-118.9h-29.615L-6379.4,117.9H-6040v.575c17.253,2.96,30.968,17,31.852,33.842a36.517,36.517,0,0,1-9.945,27.011A36.028,36.028,0,0,1-6040,190.4v.068h-.6a37.216,37.216,0,0,1-3.871.2ZM-6254,72.765h-106.332L-6329.611,0H-6040V72.765Z" transform="translate(6410.137)" fill="#fff" opacity="0.047"/>
</svg>
